<svg xmlns="http://www.w3.org/2000/svg" version="1.1" xmlns:xlink="http://www.w3.org/1999/xlink" xmlns:svgjs="http://svgjs.dev/svgjs" width="1500" height="250" viewBox="0 0 1500 250"><g transform="matrix(1,0,0,1,-0.9090909090909918,0.29559347919115453)"><svg viewBox="0 0 396 66" data-background-color="#ffffff" preserveAspectRatio="xMidYMid meet" height="250" width="1500" xmlns="http://www.w3.org/2000/svg" xmlns:xlink="http://www.w3.org/1999/xlink"><g id="tight-bounds" transform="matrix(1,0,0,1,0.2400000000000091,-0.07803667850646434)"><svg viewBox="0 0 395.52 66.15607335701294" height="66.15607335701294" width="395.52"><g><svg viewBox="0 0 507.99478710185286 84.96900384428183" height="66.15607335701294" width="395.52"><g><rect width="5.092950900445612" height="84.96900384428183" x="94.04950400128789" y="0" fill="#0074d9" opacity="1" stroke-width="0" stroke="transparent" fill-opacity="1" class="rect-yte-0" data-fill-palette-color="primary" rx="1%" id="yte-0" data-palette-color="#0074d9"></rect></g><g transform="matrix(1,0,0,1,112.47478710185291,0.21136568120467558)"><svg viewBox="0 0 395.52 84.54627248187248" height="84.54627248187248" width="395.52"><g id="textblocktransform"><svg viewBox="0 0 395.52 84.54627248187248" height="84.54627248187248" width="395.52" id="textblock"><g><svg viewBox="0 0 395.52 56.474746268656716" height="56.474746268656716" width="395.52"><g transform="matrix(1,0,0,1,0,0)"><svg width="395.52" viewBox="2.39 -32.03 294.41 42.04" height="56.474746268656716" data-palette-color="#0074d9"><path d="M24.1-29.52Q25.1-29.52 25.51-29.15 25.93-28.78 25.93-27.93L25.93-27.93 25.93-20.85Q25.93-20 25.51-19.63 25.1-19.26 24.1-19.26L24.1-19.26Q23.1-19.26 22.68-19.63 22.27-20 22.27-20.85L22.27-20.85Q22.27-22.31 21.47-23.46 20.68-24.61 19.14-25.26 17.6-25.9 15.48-25.9L15.48-25.9Q12.77-25.9 10.68-24.51 8.59-23.12 7.42-20.53 6.25-17.94 6.25-14.48L6.25-14.48Q6.25-11.01 7.36-8.44 8.47-5.86 10.51-4.47 12.55-3.08 15.23-3.08L15.23-3.08Q19.51-3.08 22.53-4.47L22.53-4.47 22.53-10.01 16.5-10.01Q15.67-10.01 15.32-10.39 14.97-10.77 14.97-11.67L14.97-11.67Q14.97-12.57 15.32-12.95 15.67-13.33 16.5-13.33L16.5-13.33 26.98-13.33Q27.81-13.33 28.16-12.95 28.52-12.57 28.52-11.67L28.52-11.67Q28.52-10.77 28.16-10.39 27.81-10.01 26.98-10.01L26.98-10.01 26.2-10.01 26.2-3.49Q26.2-2.29 25.32-1.81L25.32-1.81Q23.32-0.66 20.7-0.06 18.09 0.54 15.23 0.54L15.23 0.54Q11.43 0.54 8.51-1.33 5.59-3.2 3.99-6.6 2.39-10.01 2.39-14.48L2.39-14.48Q2.39-18.92 4.04-22.34 5.69-25.76 8.61-27.64 11.52-29.52 15.23-29.52L15.23-29.52Q17.53-29.52 19.3-28.8 21.07-28.08 22.27-26.73L22.27-26.73 22.27-27.93Q22.27-28.78 22.68-29.15 23.1-29.52 24.1-29.52L24.1-29.52ZM45.07-23.1Q49.66-23.1 51.95-21.04 54.25-18.99 54.25-14.97L54.25-14.97 54.25-5.25Q54.25-3.32 55.86-3.32L55.86-3.32 56.71-3.32Q57.54-3.32 57.9-2.94 58.25-2.56 58.25-1.66L58.25-1.66Q58.25-0.76 57.9-0.38 57.54 0 56.71 0L56.71 0 55.15 0Q53.56 0 52.43-0.79 51.29-1.59 50.95-3.13L50.95-3.13Q48.95-1.37 46.62-0.42 44.28 0.54 41.67 0.54L41.67 0.54Q39.21 0.54 37.31-0.31 35.42-1.15 34.35-2.76 33.27-4.37 33.27-6.59L33.27-6.59Q33.27-10.45 36.03-12.29 38.79-14.14 43.16-14.14L43.16-14.14Q47.04-14.14 50.58-12.89L50.58-12.89 50.58-14.97Q50.58-17.33 49.25-18.44 47.92-19.56 44.97-19.56L44.97-19.56Q43.14-19.56 41.16-19.04 39.18-18.53 37.4-17.63L37.4-17.63Q36.98-17.41 36.64-17.41L36.64-17.41Q35.84-17.41 35.3-18.58L35.3-18.58Q35.03-19.17 35.03-19.56L35.03-19.56Q35.03-20.41 35.94-20.87L35.94-20.87Q37.99-21.95 40.34-22.52 42.7-23.1 45.07-23.1L45.07-23.1ZM43.19-10.69Q40.38-10.69 38.75-9.73 37.13-8.76 37.13-6.67L37.13-6.67Q37.13-4.88 38.36-3.89 39.6-2.91 41.82-2.91L41.82-2.91Q46.68-2.91 50.58-6.93L50.58-6.93 50.58-9.59Q48.92-10.13 47.02-10.41 45.11-10.69 43.19-10.69L43.19-10.69ZM83.47-32.03Q84.3-32.03 84.65-31.65 85-31.27 85-30.37L85-30.37 85-3.32 87.01-3.32Q87.84-3.32 88.19-2.94 88.54-2.56 88.54-1.66L88.54-1.66Q88.54-0.76 88.19-0.38 87.84 0 87.01 0L87.01 0 83.12 0Q82.29 0 81.94-0.38 81.59-0.76 81.59-1.66L81.59-1.66 81.59-3.61Q80.05-1.61 78.02-0.54 76 0.54 73.6 0.54L73.6 0.54Q70.58 0.54 68.18-0.89 65.79-2.32 64.42-4.99 63.06-7.67 63.06-11.28L63.06-11.28Q63.06-14.89 64.42-17.57 65.79-20.24 68.18-21.67 70.58-23.1 73.6-23.1L73.6-23.1Q78.19-23.1 81.34-19.07L81.34-19.07 81.34-28.71 77.39-28.71Q76.56-28.71 76.2-29.09 75.85-29.47 75.85-30.37L75.85-30.37Q75.85-31.27 76.2-31.65 76.56-32.03 77.39-32.03L77.39-32.03 83.47-32.03ZM73.85-19.48Q71.67-19.48 70.11-18.44 68.55-17.41 67.73-15.55 66.91-13.7 66.91-11.28L66.91-11.28Q66.91-8.86 67.73-7.01 68.55-5.15 70.11-4.11 71.67-3.08 73.85-3.08L73.85-3.08Q76.02-3.08 77.72-4.05 79.41-5.03 80.38-6.88 81.34-8.74 81.34-11.28L81.34-11.28Q81.34-13.82 80.38-15.67 79.41-17.53 77.72-18.51 76.02-19.48 73.85-19.48L73.85-19.48ZM103.58-23.1Q105.97-23.1 108-22.02 110.03-20.95 111.56-18.95L111.56-18.95 111.56-20.9Q111.56-21.8 111.92-22.18 112.27-22.56 113.1-22.56L113.1-22.56 116.98-22.56Q117.81-22.56 118.17-22.18 118.52-21.8 118.52-20.9L118.52-20.9Q118.52-20 118.17-19.62 117.81-19.24 116.98-19.24L116.98-19.24 114.98-19.24 114.98 0.73Q114.98 3.64 113.75 5.73 112.52 7.81 110.17 8.91 107.83 10.01 104.53 10.01L104.53 10.01Q102.19 10.01 99.8 9.61 97.4 9.2 95.33 8.45L95.33 8.45Q94.38 8.11 94.38 7.15L94.38 7.15Q94.38 6.76 94.57 6.18L94.57 6.18Q95.01 4.83 95.96 4.83L95.96 4.83Q96.23 4.83 96.5 4.93L96.5 4.93Q98.41 5.62 100.51 6.01 102.6 6.4 104.53 6.4L104.53 6.4Q107.9 6.4 109.61 4.8 111.32 3.2 111.32 0.42L111.32 0.42 111.32-4.49Q108.29-0.68 103.58-0.68L103.58-0.68Q100.55-0.68 98.16-2.04 95.77-3.39 94.4-5.93 93.03-8.47 93.03-11.89L93.03-11.89Q93.03-15.31 94.4-17.85 95.77-20.39 98.16-21.74 100.55-23.1 103.58-23.1L103.58-23.1ZM103.83-19.48Q101.65-19.48 100.09-18.52 98.53-17.55 97.71-15.83 96.89-14.11 96.89-11.89L96.89-11.89Q96.89-9.67 97.71-7.95 98.53-6.23 100.09-5.26 101.65-4.3 103.83-4.3L103.83-4.3Q106-4.3 107.7-5.2 109.39-6.1 110.36-7.82 111.32-9.55 111.32-11.89L111.32-11.89Q111.32-14.23 110.36-15.95 109.39-17.68 107.7-18.58 106-19.48 103.83-19.48L103.83-19.48ZM135.12-23.1Q138.66-23.1 141.16-21.67 143.67-20.24 145.01-17.71 146.35-15.19 146.55-11.89L146.55-11.89Q146.55-11.06 146.19-10.72 145.84-10.38 145.01-10.38L145.01-10.38 127.33-10.38Q127.5-6.74 129.49-4.87 131.48-3 135.12-3L135.12-3Q137.37-3 139.57-3.58 141.76-4.15 143.42-5.1L143.42-5.1Q143.84-5.32 144.18-5.32L144.18-5.32Q145.03-5.32 145.57-4.03L145.57-4.03Q145.79-3.52 145.79-3.1L145.79-3.1Q145.79-2.12 144.72-1.59L144.72-1.59Q142.84-0.63 140.27-0.05 137.71 0.54 135.12 0.54L135.12 0.54Q131.44 0.54 128.82-0.88 126.21-2.29 124.84-4.96 123.48-7.62 123.48-11.28L123.48-11.28Q123.48-14.77 124.97-17.46 126.45-20.14 129.09-21.62 131.73-23.1 135.12-23.1L135.12-23.1ZM135.12-19.56Q132.12-19.56 130.15-18.03 128.19-16.5 127.58-13.79L127.58-13.79 142.49-13.79Q141.98-16.6 140.14-18.08 138.3-19.56 135.12-19.56L135.12-19.56ZM161.07-29.52Q162.07-29.52 162.49-29.15 162.9-28.78 162.9-27.93L162.9-27.93 162.9-20.61 172.94-20.61Q173.77-20.61 174.12-20.23 174.47-19.85 174.47-18.95L174.47-18.95Q174.47-18.04 174.12-17.66 173.77-17.29 172.94-17.29L172.94-17.29 162.9-17.29 162.9-8.4Q162.9-5.62 163.87-4.32 164.83-3.03 167.22-3.03L167.22-3.03Q168.86-3.03 170.67-3.69 172.47-4.35 174.16-5.44L174.16-5.44Q174.5-5.69 174.91-5.69L174.91-5.69Q175.74-5.69 176.33-4.57L176.33-4.57Q176.65-3.93 176.65-3.47L176.65-3.47Q176.65-2.69 175.84-2.2L175.84-2.2Q173.94-1 171.59-0.23 169.25 0.54 167.22 0.54L167.22 0.54Q163.07 0.54 161.16-1.62 159.24-3.78 159.24-8.08L159.24-8.08 159.24-17.29 154.28-17.29Q153.45-17.29 153.1-17.66 152.75-18.04 152.75-18.95L152.75-18.95Q152.75-19.85 153.1-20.23 153.45-20.61 154.28-20.61L154.28-20.61 159.24-20.61 159.24-27.93Q159.24-28.78 159.66-29.15 160.07-29.52 161.07-29.52L161.07-29.52ZM203.96-29.52Q204.97-29.52 205.38-29.15 205.8-28.78 205.8-27.93L205.8-27.93 205.8-20.85Q205.8-20 205.38-19.63 204.97-19.26 203.96-19.26L203.96-19.26Q202.96-19.26 202.55-19.63 202.13-20 202.13-20.85L202.13-20.85Q202.13-22.31 201.34-23.46 200.55-24.61 199.01-25.26 197.47-25.9 195.35-25.9L195.35-25.9Q192.64-25.9 190.55-24.51 188.46-23.12 187.29-20.53 186.12-17.94 186.12-14.48L186.12-14.48Q186.12-11.01 187.23-8.44 188.34-5.86 190.38-4.47 192.42-3.08 195.1-3.08L195.1-3.08Q199.37-3.08 202.4-4.47L202.4-4.47 202.4-10.01 196.37-10.01Q195.54-10.01 195.19-10.39 194.83-10.77 194.83-11.67L194.83-11.67Q194.83-12.57 195.19-12.95 195.54-13.33 196.37-13.33L196.37-13.33 206.85-13.33Q207.68-13.33 208.03-12.95 208.38-12.57 208.38-11.67L208.38-11.67Q208.38-10.77 208.03-10.39 207.68-10.01 206.85-10.01L206.85-10.01 206.06-10.01 206.06-3.49Q206.06-2.29 205.19-1.81L205.19-1.81Q203.18-0.66 200.57-0.06 197.96 0.54 195.1 0.54L195.1 0.54Q191.29 0.54 188.38-1.33 185.46-3.2 183.86-6.6 182.26-10.01 182.26-14.48L182.26-14.48Q182.26-18.92 183.91-22.34 185.56-25.76 188.47-27.64 191.39-29.52 195.1-29.52L195.1-29.52Q197.4-29.52 199.17-28.8 200.94-28.08 202.13-26.73L202.13-26.73 202.13-27.93Q202.13-28.78 202.55-29.15 202.96-29.52 203.96-29.52L203.96-29.52ZM217.63-32.03Q218.46-32.03 218.82-31.65 219.17-31.27 219.17-30.37L219.17-30.37 219.17-18.21Q220.76-20.58 222.85-21.84 224.93-23.1 227.35-23.1L227.35-23.1Q229.57-23.1 231.21-22.13 232.84-21.17 233.72-19.36 234.6-17.55 234.6-15.14L234.6-15.14 234.6-3.32 236.6-3.32Q237.43-3.32 237.79-2.94 238.14-2.56 238.14-1.66L238.14-1.66Q238.14-0.76 237.79-0.38 237.43 0 236.6 0L236.6 0 228.69 0Q227.86 0 227.51-0.38 227.16-0.76 227.16-1.66L227.16-1.66Q227.16-2.56 227.51-2.94 227.86-3.32 228.69-3.32L228.69-3.32 230.94-3.32 230.94-14.77Q230.94-16.94 229.94-18.21 228.94-19.48 226.98-19.48L226.98-19.48Q224.91-19.48 223.11-18.29 221.32-17.09 220.25-14.99 219.17-12.89 219.17-10.3L219.17-10.3 219.17-3.32 221.42-3.32Q222.25-3.32 222.6-2.94 222.96-2.56 222.96-1.66L222.96-1.66Q222.96-0.76 222.6-0.38 222.25 0 221.42 0L221.42 0 213.51 0Q212.68 0 212.32-0.38 211.97-0.76 211.97-1.66L211.97-1.66Q211.97-2.56 212.32-2.94 212.68-3.32 213.51-3.32L213.51-3.32 215.51-3.32 215.51-28.71 213.26-28.71Q212.43-28.71 212.08-29.09 211.73-29.47 211.73-30.37L211.73-30.37Q211.73-31.27 212.08-31.65 212.43-32.03 213.26-32.03L213.26-32.03 217.63-32.03ZM254.91-23.1Q259.5-23.1 261.8-21.04 264.09-18.99 264.09-14.97L264.09-14.97 264.09-5.25Q264.09-3.32 265.7-3.32L265.7-3.32 266.56-3.32Q267.39-3.32 267.74-2.94 268.1-2.56 268.1-1.66L268.1-1.66Q268.1-0.76 267.74-0.38 267.39 0 266.56 0L266.56 0 264.99 0Q263.41 0 262.27-0.79 261.14-1.59 260.8-3.13L260.8-3.13Q258.79-1.37 256.46-0.42 254.13 0.54 251.52 0.54L251.52 0.54Q249.05 0.54 247.16-0.31 245.27-1.15 244.19-2.76 243.12-4.37 243.12-6.59L243.12-6.59Q243.12-10.45 245.88-12.29 248.64-14.14 253.01-14.14L253.01-14.14Q256.89-14.14 260.43-12.89L260.43-12.89 260.43-14.97Q260.43-17.33 259.1-18.44 257.77-19.56 254.81-19.56L254.81-19.56Q252.98-19.56 251.01-19.04 249.03-18.53 247.25-17.63L247.25-17.63Q246.83-17.41 246.49-17.41L246.49-17.41Q245.68-17.41 245.15-18.58L245.15-18.58Q244.88-19.17 244.88-19.56L244.88-19.56Q244.88-20.41 245.78-20.87L245.78-20.87Q247.83-21.95 250.19-22.52 252.54-23.1 254.91-23.1L254.91-23.1ZM253.03-10.69Q250.22-10.69 248.6-9.73 246.98-8.76 246.98-6.67L246.98-6.67Q246.98-4.88 248.21-3.89 249.44-2.91 251.66-2.91L251.66-2.91Q256.52-2.91 260.43-6.93L260.43-6.93 260.43-9.59Q258.77-10.13 256.86-10.41 254.96-10.69 253.03-10.69L253.03-10.69ZM292.26-23.1Q294.17-23.1 295.83-22.12L295.83-22.12Q296.8-21.53 296.8-20.61L296.8-20.61Q296.8-20.17 296.58-19.58L296.58-19.58Q296.07-18.19 295.17-18.19L295.17-18.19Q294.8-18.19 294.48-18.38L294.48-18.38Q293.29-19.04 291.92-19.04L291.92-19.04Q289.72-19.04 287.5-17.52 285.28-15.99 283.85-13.45 282.42-10.91 282.42-8.06L282.42-8.06 282.42-3.32 290.65-3.32Q291.48-3.32 291.84-2.94 292.19-2.56 292.19-1.66L292.19-1.66Q292.19-0.76 291.84-0.38 291.48 0 290.65 0L290.65 0 274.93 0Q274.1 0 273.74-0.38 273.39-0.76 273.39-1.66L273.39-1.66Q273.39-2.56 273.74-2.94 274.1-3.32 274.93-3.32L274.93-3.32 278.76-3.32 278.76-19.24 275.66-19.24Q274.83-19.24 274.48-19.62 274.12-20 274.12-20.9L274.12-20.9Q274.12-21.8 274.48-22.18 274.83-22.56 275.66-22.56L275.66-22.56 280.64-22.56Q281.47-22.56 281.83-22.18 282.18-21.8 282.18-20.9L282.18-20.9 282.18-15.97Q283.35-18.12 285.01-19.73 286.67-21.34 288.55-22.22 290.43-23.1 292.26-23.1L292.26-23.1Z" opacity="1" transform="matrix(1,0,0,1,0,0)" fill="#0074d9" class="wordmark-text-0" data-fill-palette-color="primary" id="text-0"></path></svg></g></svg></g><g transform="matrix(1,0,0,1,0,69.80707846877613)"><svg viewBox="0 0 278.05055999999996 14.73919401309635" height="14.73919401309635" width="278.05055999999996"><g transform="matrix(1,0,0,1,0,0)"><svg width="278.05055999999996" viewBox="4.5 -33.4 641.34 34" height="14.73919401309635" data-palette-color="#0074d9"><path d="M8.65 0L4.5 0 4.5-32.8 23.4-32.8 23.4-29.3 8.65-29.3 8.65-18.2 21.15-18.2 21.15-14.7 8.65-14.7 8.65 0ZM40.85 0.6L40.85 0.6Q38.35 0.6 36.17-0.13 34-0.85 32.42-2.53 30.85-4.2 29.95-6.9 29.05-9.6 29.05-13.55L29.05-13.55 29.05-32.8 33.2-32.8 33.2-13.45Q33.2-10.5 33.8-8.5 34.4-6.5 35.42-5.3 36.45-4.1 37.85-3.58 39.25-3.05 40.85-3.05L40.85-3.05Q42.5-3.05 43.9-3.58 45.3-4.1 46.35-5.3 47.4-6.5 48-8.5 48.6-10.5 48.6-13.45L48.6-13.45 48.6-32.8 52.6-32.8 52.6-13.55Q52.6-9.6 51.7-6.9 50.8-4.2 49.22-2.53 47.65-0.85 45.5-0.13 43.35 0.6 40.85 0.6ZM79.95 0L61.45 0 61.45-32.8 65.6-32.8 65.6-3.55 79.95-3.55 79.95 0ZM89.89 0L85.74 0 85.74-32.8 104.64-32.8 104.64-29.3 89.89-29.3 89.89-18.2 102.39-18.2 102.39-14.7 89.89-14.7 89.89 0ZM114.59 0L110.44 0 110.44-32.8 114.59-32.8 114.59 0ZM142.09 0L123.59 0 123.59-32.8 127.74-32.8 127.74-3.55 142.09-3.55 142.09 0ZM166.39 0L147.89 0 147.89-32.8 152.04-32.8 152.04-3.55 166.39-3.55 166.39 0ZM176.33 0L172.18 0 172.18-32.8 176.33-32.8 176.33 0ZM189.28 0L185.33 0 185.33-32.8 189.63-32.8 201.48-12.2 205.03-5.4 205.23-5.4Q205.08-7.9 204.91-10.58 204.73-13.25 204.73-15.85L204.73-15.85 204.73-32.8 208.68-32.8 208.68 0 204.38 0 192.48-20.65 188.93-27.4 188.73-27.4Q188.93-24.9 189.11-22.33 189.28-19.75 189.28-17.15L189.28-17.15 189.28 0ZM230.58 0.6L230.58 0.6Q227.33 0.6 224.6-0.55 221.88-1.7 219.93-3.88 217.98-6.05 216.88-9.22 215.78-12.4 215.78-16.4L215.78-16.4Q215.78-20.35 216.9-23.5 218.03-26.65 220.03-28.85 222.03-31.05 224.8-32.23 227.58-33.4 230.83-33.4L230.83-33.4Q232.53-33.4 233.95-33.05 235.38-32.7 236.55-32.13 237.73-31.55 238.65-30.83 239.58-30.1 240.28-29.35L240.28-29.35 237.98-26.65Q236.73-27.95 235.08-28.85 233.43-29.75 230.93-29.75L230.93-29.75Q228.43-29.75 226.43-28.83 224.43-27.9 223.03-26.18 221.63-24.45 220.85-22 220.08-19.55 220.08-16.5L220.08-16.5Q220.08-13.4 220.8-10.93 221.53-8.45 222.9-6.7 224.28-4.95 226.3-4 228.33-3.05 230.98-3.05L230.98-3.05Q232.73-3.05 234.3-3.58 235.88-4.1 236.88-5L236.88-5 236.88-13.55 229.93-13.55 229.93-17 240.68-17 240.68-3.2Q239.08-1.55 236.48-0.48 233.88 0.6 230.58 0.6ZM268.02 0L263.82 0 263.82-12.7 253.97-32.8 258.42-32.8 262.67-23.55Q263.47-21.75 264.22-20 264.97-18.25 265.82-16.4L265.82-16.4 266.02-16.4Q266.87-18.25 267.72-20 268.57-21.75 269.32-23.55L269.32-23.55 273.52-32.8 277.87-32.8 268.02-12.7 268.02 0ZM293.72 0.6L293.72 0.6Q290.62 0.6 288.05-0.6 285.47-1.8 283.62-4.03 281.77-6.25 280.75-9.43 279.72-12.6 279.72-16.55L279.72-16.55Q279.72-20.5 280.75-23.63 281.77-26.75 283.62-28.93 285.47-31.1 288.05-32.25 290.62-33.4 293.72-33.4L293.72-33.4Q296.82-33.4 299.4-32.23 301.97-31.05 303.85-28.88 305.72-26.7 306.75-23.58 307.77-20.45 307.77-16.55L307.77-16.55Q307.77-12.6 306.75-9.43 305.72-6.25 303.85-4.03 301.97-1.8 299.4-0.6 296.82 0.6 293.72 0.6ZM293.72-3.05L293.72-3.05Q295.92-3.05 297.7-4 299.47-4.95 300.75-6.73 302.02-8.5 302.72-10.98 303.42-13.45 303.42-16.55L303.42-16.55Q303.42-19.6 302.72-22.05 302.02-24.5 300.75-26.2 299.47-27.9 297.7-28.83 295.92-29.75 293.72-29.75L293.72-29.75Q291.52-29.75 289.75-28.83 287.97-27.9 286.7-26.2 285.42-24.5 284.72-22.05 284.02-19.6 284.02-16.55L284.02-16.55Q284.02-13.45 284.72-10.98 285.42-8.5 286.7-6.73 287.97-4.95 289.75-4 291.52-3.05 293.72-3.05ZM326.47 0.6L326.47 0.6Q323.97 0.6 321.79-0.13 319.62-0.85 318.04-2.53 316.47-4.2 315.57-6.9 314.67-9.6 314.67-13.55L314.67-13.55 314.67-32.8 318.82-32.8 318.82-13.45Q318.82-10.5 319.42-8.5 320.02-6.5 321.04-5.3 322.07-4.1 323.47-3.58 324.87-3.05 326.47-3.05L326.47-3.05Q328.12-3.05 329.52-3.58 330.92-4.1 331.97-5.3 333.02-6.5 333.62-8.5 334.22-10.5 334.22-13.45L334.22-13.45 334.22-32.8 338.22-32.8 338.22-13.55Q338.22-9.6 337.32-6.9 336.42-4.2 334.84-2.53 333.27-0.85 331.12-0.13 328.97 0.6 326.47 0.6ZM351.22 0L347.07 0 347.07-32.8 357.32-32.8Q359.82-32.8 361.94-32.33 364.07-31.85 365.59-30.75 367.12-29.65 367.97-27.9 368.82-26.15 368.82-23.6L368.82-23.6Q368.82-19.75 366.82-17.45 364.82-15.15 361.42-14.3L361.42-14.3 369.77 0 365.07 0 357.17-13.85 351.22-13.85 351.22 0ZM351.22-29.45L351.22-17.25 356.72-17.25Q360.57-17.25 362.62-18.82 364.67-20.4 364.67-23.6L364.67-23.6Q364.67-26.85 362.62-28.15 360.57-29.45 356.72-29.45L356.72-29.45 351.22-29.45ZM396.51 0L392.31 0 392.31-29.3 382.41-29.3 382.41-32.8 406.41-32.8 406.41-29.3 396.51-29.3 396.51 0ZM431.71 0L412.31 0 412.31-32.8 431.21-32.8 431.21-29.3 416.46-29.3 416.46-19 428.91-19 428.91-15.45 416.46-15.45 416.46-3.55 431.71-3.55 431.71 0ZM451.06 0.6L451.06 0.6Q447.96 0.6 445.36-0.55 442.76-1.7 440.83-3.88 438.91-6.05 437.83-9.22 436.76-12.4 436.76-16.4L436.76-16.4Q436.76-20.35 437.86-23.5 438.96-26.65 440.91-28.85 442.86-31.05 445.51-32.23 448.16-33.4 451.31-33.4L451.31-33.4Q454.31-33.4 456.58-32.18 458.86-30.95 460.31-29.35L460.31-29.35 458.06-26.65Q456.76-28.05 455.11-28.9 453.46-29.75 451.36-29.75L451.36-29.75Q449.01-29.75 447.11-28.83 445.21-27.9 443.86-26.18 442.51-24.45 441.78-22 441.06-19.55 441.06-16.5L441.06-16.5Q441.06-13.4 441.78-10.93 442.51-8.45 443.81-6.7 445.11-4.95 446.98-4 448.86-3.05 451.21-3.05L451.21-3.05Q453.61-3.05 455.41-4.03 457.21-5 458.81-6.75L458.81-6.75 461.11-4.15Q459.16-1.9 456.71-0.65 454.26 0.6 451.06 0.6ZM471.35 0L467.2 0 467.2-32.8 471.35-32.8 471.35-19.05 486.6-19.05 486.6-32.8 490.8-32.8 490.8 0 486.6 0 486.6-15.45 471.35-15.45 471.35 0ZM513.75 0L509.8 0 509.8-32.8 514.1-32.8 525.95-12.2 529.5-5.4 529.7-5.4Q529.55-7.9 529.37-10.58 529.2-13.25 529.2-15.85L529.2-15.85 529.2-32.8 533.15-32.8 533.15 0 528.85 0 516.95-20.65 513.4-27.4 513.2-27.4Q513.4-24.9 513.57-22.33 513.75-19.75 513.75-17.15L513.75-17.15 513.75 0ZM561.55 0L542.15 0 542.15-32.8 561.05-32.8 561.05-29.3 546.3-29.3 546.3-19 558.75-19 558.75-15.45 546.3-15.45 546.3-3.55 561.55-3.55 561.55 0ZM587.89 0L568.49 0 568.49-32.8 587.39-32.8 587.39-29.3 572.64-29.3 572.64-19 585.09-19 585.09-15.45 572.64-15.45 572.64-3.55 587.89-3.55 587.89 0ZM603.24 0L594.84 0 594.84-32.8 603.04-32.8Q610.64-32.8 614.59-28.6 618.54-24.4 618.54-16.55L618.54-16.55Q618.54-12.65 617.54-9.58 616.54-6.5 614.59-4.38 612.64-2.25 609.79-1.13 606.94 0 603.24 0L603.24 0ZM598.99-29.4L598.99-3.4 602.74-3.4Q608.49-3.4 611.37-6.85 614.24-10.3 614.24-16.55L614.24-16.55Q614.24-22.8 611.37-26.1 608.49-29.4 602.74-29.4L602.74-29.4 598.99-29.4ZM634.69 0.6L634.69 0.6Q631.24 0.6 628.29-0.7 625.34-2 623.19-4.25L623.19-4.25 625.69-7.15Q627.44-5.3 629.81-4.17 632.19-3.05 634.74-3.05L634.74-3.05Q637.99-3.05 639.79-4.53 641.59-6 641.59-8.4L641.59-8.4Q641.59-9.65 641.16-10.53 640.74-11.4 640.01-12.03 639.29-12.65 638.29-13.15 637.29-13.65 636.14-14.2L636.14-14.2 631.44-16.25Q630.29-16.75 629.09-17.45 627.89-18.15 626.94-19.15 625.99-20.15 625.39-21.53 624.79-22.9 624.79-24.7L624.79-24.7Q624.79-26.55 625.56-28.15 626.34-29.75 627.71-30.93 629.09-32.1 630.96-32.75 632.84-33.4 635.09-33.4L635.09-33.4Q638.04-33.4 640.54-32.27 643.04-31.15 644.79-29.35L644.79-29.35 642.54-26.65Q641.04-28.1 639.21-28.93 637.39-29.75 635.09-29.75L635.09-29.75Q632.34-29.75 630.66-28.48 628.99-27.2 628.99-24.95L628.99-24.95Q628.99-23.75 629.46-22.93 629.94-22.1 630.74-21.48 631.54-20.85 632.49-20.38 633.44-19.9 634.44-19.5L634.44-19.5 639.09-17.5Q640.49-16.9 641.74-16.13 642.99-15.35 643.89-14.33 644.79-13.3 645.31-11.93 645.84-10.55 645.84-8.75L645.84-8.75Q645.84-6.8 645.06-5.1 644.29-3.4 642.84-2.13 641.39-0.85 639.34-0.13 637.29 0.6 634.69 0.6Z" opacity="1" transform="matrix(1,0,0,1,0,0)" fill="#0074d9" class="slogan-text-1" data-fill-palette-color="secondary" id="text-1"></path></svg></g></svg></g></svg></g></svg></g><g transform="matrix(1,0,0,1,0,0.21136568120467558)"><svg viewBox="0 0 80.71717180116848 84.54627248187248" height="84.54627248187248" width="80.71717180116848"><g><svg xmlns="http://www.w3.org/2000/svg" xml:space="preserve" version="1.0" viewBox="0 0 95.471 100" id="icon-0" width="80.71717180116848" height="84.54627248187248" x="0" y="0" class="icon-icon-0" data-fill-palette-color="accent"><path d="M47.735 0c-0.083 2.825-1.738 13.412-19.799 30.934C10.554 47.797 2.439 49.824 0 50c2.439 0.178 10.554 2.204 27.936 19.066C45.997 86.589 47.652 97.177 47.735 100c0.083-2.823 1.739-13.411 19.798-30.934C84.917 52.204 93.031 50.178 95.471 50c-2.439-0.176-10.554-2.203-27.938-19.066C49.475 13.412 47.819 2.825 47.735 0" fill="#0074d9" data-fill-palette-color="accent"></path></svg></g></svg></g></svg></g><defs></defs></svg><rect width="395.52" height="66.15607335701294" fill="none" stroke="none" visibility="hidden"></rect></g></svg></g></svg>