<svg xmlns="http://www.w3.org/2000/svg" version="1.1" xmlns:xlink="http://www.w3.org/1999/xlink" xmlns:svgjs="http://svgjs.dev/svgjs" width="1500" height="268" viewBox="0 0 1500 268"><g transform="matrix(1,0,0,1,-0.9090909090909918,0.3409878561027426)"><svg viewBox="0 0 396 71" data-background-color="#ffffff" preserveAspectRatio="xMidYMid meet" height="268" width="1500" xmlns="http://www.w3.org/2000/svg" xmlns:xlink="http://www.w3.org/1999/xlink"><g id="tight-bounds" transform="matrix(1,0,0,1,0.2400000000000091,-0.09033633501229588)"><svg viewBox="0 0 395.52 71.18067267002459" height="71.18067267002459" width="395.52"><g><svg viewBox="0 0 515.3895303925093 92.7532702781829" height="71.18067267002459" width="395.52"><g><rect width="5.092950900445612" height="92.7532702781829" x="101.4442472919443" y="0" fill="#0074d9" opacity="1" stroke-width="0" stroke="transparent" fill-opacity="1" class="rect-yte-0" data-fill-palette-color="primary" rx="1%" id="yte-0" data-palette-color="#0074d9"></rect></g><g transform="matrix(1,0,0,1,119.86953039250932,0.23072952805517843)"><svg viewBox="0 0 395.52 92.29181122207254" height="92.29181122207254" width="395.52"><g id="textblocktransform"><svg viewBox="0 0 395.52 92.29181122207254" height="92.29181122207254" width="395.52" id="textblock"><g><svg viewBox="0 0 395.52 56.474746268656716" height="56.474746268656716" width="395.52"><g transform="matrix(1,0,0,1,0,0)"><svg width="395.52" viewBox="2.39 -32.03 294.41 42.04" height="56.474746268656716" data-palette-color="#0074d9"><path d="M24.1-29.52Q25.1-29.52 25.51-29.15 25.93-28.78 25.93-27.93L25.93-27.93 25.93-20.85Q25.93-20 25.51-19.63 25.1-19.26 24.1-19.26L24.1-19.26Q23.1-19.26 22.68-19.63 22.27-20 22.27-20.85L22.27-20.85Q22.27-22.31 21.47-23.46 20.68-24.61 19.14-25.26 17.6-25.9 15.48-25.9L15.48-25.9Q12.77-25.9 10.68-24.51 8.59-23.12 7.42-20.53 6.25-17.94 6.25-14.48L6.25-14.48Q6.25-11.01 7.36-8.44 8.47-5.86 10.51-4.47 12.55-3.08 15.23-3.08L15.23-3.08Q19.51-3.08 22.53-4.47L22.53-4.47 22.53-10.01 16.5-10.01Q15.67-10.01 15.32-10.39 14.97-10.77 14.97-11.67L14.97-11.67Q14.97-12.57 15.32-12.95 15.67-13.33 16.5-13.33L16.5-13.33 26.98-13.33Q27.81-13.33 28.16-12.95 28.52-12.57 28.52-11.67L28.52-11.67Q28.52-10.77 28.16-10.39 27.81-10.01 26.98-10.01L26.98-10.01 26.2-10.01 26.2-3.49Q26.2-2.29 25.32-1.81L25.32-1.81Q23.32-0.66 20.7-0.06 18.09 0.54 15.23 0.54L15.23 0.54Q11.43 0.54 8.51-1.33 5.59-3.2 3.99-6.6 2.39-10.01 2.39-14.48L2.39-14.48Q2.39-18.92 4.04-22.34 5.69-25.76 8.61-27.64 11.52-29.52 15.23-29.52L15.23-29.52Q17.53-29.52 19.3-28.8 21.07-28.08 22.27-26.73L22.27-26.73 22.27-27.93Q22.27-28.78 22.68-29.15 23.1-29.52 24.1-29.52L24.1-29.52ZM45.07-23.1Q49.66-23.1 51.95-21.04 54.25-18.99 54.25-14.97L54.25-14.97 54.25-5.25Q54.25-3.32 55.86-3.32L55.86-3.32 56.71-3.32Q57.54-3.32 57.9-2.94 58.25-2.56 58.25-1.66L58.25-1.66Q58.25-0.76 57.9-0.38 57.54 0 56.71 0L56.71 0 55.15 0Q53.56 0 52.43-0.79 51.29-1.59 50.95-3.13L50.95-3.13Q48.95-1.37 46.62-0.42 44.28 0.54 41.67 0.54L41.67 0.54Q39.21 0.54 37.31-0.31 35.42-1.15 34.35-2.76 33.27-4.37 33.27-6.59L33.27-6.59Q33.27-10.45 36.03-12.29 38.79-14.14 43.16-14.14L43.16-14.14Q47.04-14.14 50.58-12.89L50.58-12.89 50.58-14.97Q50.58-17.33 49.25-18.44 47.92-19.56 44.97-19.56L44.97-19.56Q43.14-19.56 41.16-19.04 39.18-18.53 37.4-17.63L37.4-17.63Q36.98-17.41 36.64-17.41L36.64-17.41Q35.84-17.41 35.3-18.58L35.3-18.58Q35.03-19.17 35.03-19.56L35.03-19.56Q35.03-20.41 35.94-20.87L35.94-20.87Q37.99-21.95 40.34-22.52 42.7-23.1 45.07-23.1L45.07-23.1ZM43.19-10.69Q40.38-10.69 38.75-9.73 37.13-8.76 37.13-6.67L37.13-6.67Q37.13-4.88 38.36-3.89 39.6-2.91 41.82-2.91L41.82-2.91Q46.68-2.91 50.58-6.93L50.58-6.93 50.58-9.59Q48.92-10.13 47.02-10.41 45.11-10.69 43.19-10.69L43.19-10.69ZM83.47-32.03Q84.3-32.03 84.65-31.65 85-31.27 85-30.37L85-30.37 85-3.32 87.01-3.32Q87.84-3.32 88.19-2.94 88.54-2.56 88.54-1.66L88.54-1.66Q88.54-0.76 88.19-0.38 87.84 0 87.01 0L87.01 0 83.12 0Q82.29 0 81.94-0.38 81.59-0.76 81.59-1.66L81.59-1.66 81.59-3.61Q80.05-1.61 78.02-0.54 76 0.54 73.6 0.54L73.6 0.54Q70.58 0.54 68.18-0.89 65.79-2.32 64.42-4.99 63.06-7.67 63.06-11.28L63.06-11.28Q63.06-14.89 64.42-17.57 65.79-20.24 68.18-21.67 70.58-23.1 73.6-23.1L73.6-23.1Q78.19-23.1 81.34-19.07L81.34-19.07 81.34-28.71 77.39-28.71Q76.56-28.71 76.2-29.09 75.85-29.47 75.85-30.37L75.85-30.37Q75.85-31.27 76.2-31.65 76.56-32.03 77.39-32.03L77.39-32.03 83.47-32.03ZM73.85-19.48Q71.67-19.48 70.11-18.44 68.55-17.41 67.73-15.55 66.91-13.7 66.91-11.28L66.91-11.28Q66.91-8.86 67.73-7.01 68.55-5.15 70.11-4.11 71.67-3.08 73.85-3.08L73.85-3.08Q76.02-3.08 77.72-4.05 79.41-5.03 80.38-6.88 81.34-8.74 81.34-11.28L81.34-11.28Q81.34-13.82 80.38-15.67 79.41-17.53 77.72-18.51 76.02-19.48 73.85-19.48L73.85-19.48ZM103.58-23.1Q105.97-23.1 108-22.02 110.03-20.95 111.56-18.95L111.56-18.95 111.56-20.9Q111.56-21.8 111.92-22.18 112.27-22.56 113.1-22.56L113.1-22.56 116.98-22.56Q117.81-22.56 118.17-22.18 118.52-21.8 118.52-20.9L118.52-20.9Q118.52-20 118.17-19.62 117.81-19.24 116.98-19.24L116.98-19.24 114.98-19.24 114.98 0.73Q114.98 3.64 113.75 5.73 112.52 7.81 110.17 8.91 107.83 10.01 104.53 10.01L104.53 10.01Q102.19 10.01 99.8 9.61 97.4 9.2 95.33 8.45L95.33 8.45Q94.38 8.11 94.38 7.15L94.38 7.15Q94.38 6.76 94.57 6.18L94.57 6.18Q95.01 4.83 95.96 4.83L95.96 4.83Q96.23 4.83 96.5 4.93L96.5 4.93Q98.41 5.62 100.51 6.01 102.6 6.4 104.53 6.4L104.53 6.4Q107.9 6.4 109.61 4.8 111.32 3.2 111.32 0.42L111.32 0.42 111.32-4.49Q108.29-0.68 103.58-0.68L103.58-0.68Q100.55-0.68 98.16-2.04 95.77-3.39 94.4-5.93 93.03-8.47 93.03-11.89L93.03-11.89Q93.03-15.31 94.4-17.85 95.77-20.39 98.16-21.74 100.55-23.1 103.58-23.1L103.58-23.1ZM103.83-19.48Q101.65-19.48 100.09-18.52 98.53-17.55 97.71-15.83 96.89-14.11 96.89-11.89L96.89-11.89Q96.89-9.67 97.71-7.95 98.53-6.23 100.09-5.26 101.65-4.3 103.83-4.3L103.83-4.3Q106-4.3 107.7-5.2 109.39-6.1 110.36-7.82 111.32-9.55 111.32-11.89L111.32-11.89Q111.32-14.23 110.36-15.95 109.39-17.68 107.7-18.58 106-19.48 103.83-19.48L103.83-19.48ZM135.12-23.1Q138.66-23.1 141.16-21.67 143.67-20.24 145.01-17.71 146.35-15.19 146.55-11.89L146.55-11.89Q146.55-11.06 146.19-10.72 145.84-10.38 145.01-10.38L145.01-10.38 127.33-10.38Q127.5-6.74 129.49-4.87 131.48-3 135.12-3L135.12-3Q137.37-3 139.57-3.58 141.76-4.15 143.42-5.1L143.42-5.1Q143.84-5.32 144.18-5.32L144.18-5.32Q145.03-5.32 145.57-4.03L145.57-4.03Q145.79-3.52 145.79-3.1L145.79-3.1Q145.79-2.12 144.72-1.59L144.72-1.59Q142.84-0.63 140.27-0.05 137.71 0.54 135.12 0.54L135.12 0.54Q131.44 0.54 128.82-0.88 126.21-2.29 124.84-4.96 123.48-7.62 123.48-11.28L123.48-11.28Q123.48-14.77 124.97-17.46 126.45-20.14 129.09-21.62 131.73-23.1 135.12-23.1L135.12-23.1ZM135.12-19.56Q132.12-19.56 130.15-18.03 128.19-16.5 127.58-13.79L127.58-13.79 142.49-13.79Q141.98-16.6 140.14-18.08 138.3-19.56 135.12-19.56L135.12-19.56ZM161.07-29.52Q162.07-29.52 162.49-29.15 162.9-28.78 162.9-27.93L162.9-27.93 162.9-20.61 172.94-20.61Q173.77-20.61 174.12-20.23 174.47-19.85 174.47-18.95L174.47-18.95Q174.47-18.04 174.12-17.66 173.77-17.29 172.94-17.29L172.94-17.29 162.9-17.29 162.9-8.4Q162.9-5.62 163.87-4.32 164.83-3.03 167.22-3.03L167.22-3.03Q168.86-3.03 170.67-3.69 172.47-4.35 174.16-5.44L174.16-5.44Q174.5-5.69 174.91-5.69L174.91-5.69Q175.74-5.69 176.33-4.57L176.33-4.57Q176.65-3.93 176.65-3.47L176.65-3.47Q176.65-2.69 175.84-2.2L175.84-2.2Q173.94-1 171.59-0.23 169.25 0.54 167.22 0.54L167.22 0.54Q163.07 0.54 161.16-1.62 159.24-3.78 159.24-8.08L159.24-8.08 159.24-17.29 154.28-17.29Q153.45-17.29 153.1-17.66 152.75-18.04 152.75-18.95L152.75-18.95Q152.75-19.85 153.1-20.23 153.45-20.61 154.28-20.61L154.28-20.61 159.24-20.61 159.24-27.93Q159.24-28.78 159.66-29.15 160.07-29.52 161.07-29.52L161.07-29.52ZM203.96-29.52Q204.97-29.52 205.38-29.15 205.8-28.78 205.8-27.93L205.8-27.93 205.8-20.85Q205.8-20 205.38-19.63 204.97-19.26 203.96-19.26L203.96-19.26Q202.96-19.26 202.55-19.63 202.13-20 202.13-20.85L202.13-20.85Q202.13-22.31 201.34-23.46 200.55-24.61 199.01-25.26 197.47-25.9 195.35-25.9L195.35-25.9Q192.64-25.9 190.55-24.51 188.46-23.12 187.29-20.53 186.12-17.94 186.12-14.48L186.12-14.48Q186.12-11.01 187.23-8.44 188.34-5.86 190.38-4.47 192.42-3.08 195.1-3.08L195.1-3.08Q199.37-3.08 202.4-4.47L202.4-4.47 202.4-10.01 196.37-10.01Q195.54-10.01 195.19-10.39 194.83-10.77 194.83-11.67L194.83-11.67Q194.83-12.57 195.19-12.95 195.54-13.33 196.37-13.33L196.37-13.33 206.85-13.33Q207.68-13.33 208.03-12.95 208.38-12.57 208.38-11.67L208.38-11.67Q208.38-10.77 208.03-10.39 207.68-10.01 206.85-10.01L206.85-10.01 206.06-10.01 206.06-3.49Q206.06-2.29 205.19-1.81L205.19-1.81Q203.18-0.66 200.57-0.06 197.96 0.54 195.1 0.54L195.1 0.54Q191.29 0.54 188.38-1.33 185.46-3.2 183.86-6.6 182.26-10.01 182.26-14.48L182.26-14.48Q182.26-18.92 183.91-22.34 185.56-25.76 188.47-27.64 191.39-29.52 195.1-29.52L195.1-29.52Q197.4-29.52 199.17-28.8 200.94-28.08 202.13-26.73L202.13-26.73 202.13-27.93Q202.13-28.78 202.55-29.15 202.96-29.52 203.96-29.52L203.96-29.52ZM217.63-32.03Q218.46-32.03 218.82-31.65 219.17-31.27 219.17-30.37L219.17-30.37 219.17-18.21Q220.76-20.58 222.85-21.84 224.93-23.1 227.35-23.1L227.35-23.1Q229.57-23.1 231.21-22.13 232.84-21.17 233.72-19.36 234.6-17.55 234.6-15.14L234.6-15.14 234.6-3.32 236.6-3.32Q237.43-3.32 237.79-2.94 238.14-2.56 238.14-1.66L238.14-1.66Q238.14-0.76 237.79-0.38 237.43 0 236.6 0L236.6 0 228.69 0Q227.86 0 227.51-0.38 227.16-0.76 227.16-1.66L227.16-1.66Q227.16-2.56 227.51-2.94 227.86-3.32 228.69-3.32L228.69-3.32 230.94-3.32 230.94-14.77Q230.94-16.94 229.94-18.21 228.94-19.48 226.98-19.48L226.98-19.48Q224.91-19.48 223.11-18.29 221.32-17.09 220.25-14.99 219.17-12.89 219.17-10.3L219.17-10.3 219.17-3.32 221.42-3.32Q222.25-3.32 222.6-2.94 222.96-2.56 222.96-1.66L222.96-1.66Q222.96-0.76 222.6-0.38 222.25 0 221.42 0L221.42 0 213.51 0Q212.68 0 212.32-0.38 211.97-0.76 211.97-1.66L211.97-1.66Q211.97-2.56 212.32-2.94 212.68-3.32 213.51-3.32L213.51-3.32 215.51-3.32 215.51-28.71 213.26-28.71Q212.43-28.71 212.08-29.09 211.73-29.47 211.73-30.37L211.73-30.37Q211.73-31.27 212.08-31.65 212.43-32.03 213.26-32.03L213.26-32.03 217.63-32.03ZM254.91-23.1Q259.5-23.1 261.8-21.04 264.09-18.99 264.09-14.97L264.09-14.97 264.09-5.25Q264.09-3.32 265.7-3.32L265.7-3.32 266.56-3.32Q267.39-3.32 267.74-2.94 268.1-2.56 268.1-1.66L268.1-1.66Q268.1-0.76 267.74-0.38 267.39 0 266.56 0L266.56 0 264.99 0Q263.41 0 262.27-0.79 261.14-1.59 260.8-3.13L260.8-3.13Q258.79-1.37 256.46-0.42 254.13 0.54 251.52 0.54L251.52 0.54Q249.05 0.54 247.16-0.31 245.27-1.15 244.19-2.76 243.12-4.37 243.12-6.59L243.12-6.59Q243.12-10.45 245.88-12.29 248.64-14.14 253.01-14.14L253.01-14.14Q256.89-14.14 260.43-12.89L260.43-12.89 260.43-14.97Q260.43-17.33 259.1-18.44 257.77-19.56 254.81-19.56L254.81-19.56Q252.98-19.56 251.01-19.04 249.03-18.53 247.25-17.63L247.25-17.63Q246.83-17.41 246.49-17.41L246.49-17.41Q245.68-17.41 245.15-18.58L245.15-18.58Q244.88-19.17 244.88-19.56L244.88-19.56Q244.88-20.41 245.78-20.87L245.78-20.87Q247.83-21.95 250.19-22.52 252.54-23.1 254.91-23.1L254.91-23.1ZM253.03-10.69Q250.22-10.69 248.6-9.73 246.98-8.76 246.98-6.67L246.98-6.67Q246.98-4.88 248.21-3.89 249.44-2.91 251.66-2.91L251.66-2.91Q256.52-2.91 260.43-6.93L260.43-6.93 260.43-9.59Q258.77-10.13 256.86-10.41 254.96-10.69 253.03-10.69L253.03-10.69ZM292.26-23.1Q294.17-23.1 295.83-22.12L295.83-22.12Q296.8-21.53 296.8-20.61L296.8-20.61Q296.8-20.17 296.58-19.58L296.58-19.58Q296.07-18.19 295.17-18.19L295.17-18.19Q294.8-18.19 294.48-18.38L294.48-18.38Q293.29-19.04 291.92-19.04L291.92-19.04Q289.72-19.04 287.5-17.52 285.28-15.99 283.85-13.45 282.42-10.91 282.42-8.06L282.42-8.06 282.42-3.32 290.65-3.32Q291.48-3.32 291.84-2.94 292.19-2.56 292.19-1.66L292.19-1.66Q292.19-0.76 291.84-0.38 291.48 0 290.65 0L290.65 0 274.93 0Q274.1 0 273.74-0.38 273.39-0.76 273.39-1.66L273.39-1.66Q273.39-2.56 273.74-2.94 274.1-3.32 274.93-3.32L274.93-3.32 278.76-3.32 278.76-19.24 275.66-19.24Q274.83-19.24 274.48-19.62 274.12-20 274.12-20.9L274.12-20.9Q274.12-21.8 274.48-22.18 274.83-22.56 275.66-22.56L275.66-22.56 280.64-22.56Q281.47-22.56 281.83-22.18 282.18-21.8 282.18-20.9L282.18-20.9 282.18-15.97Q283.35-18.12 285.01-19.73 286.67-21.34 288.55-22.22 290.43-23.1 292.26-23.1L292.26-23.1Z" opacity="1" transform="matrix(1,0,0,1,0,0)" fill="#0074d9" class="wordmark-text-0" data-fill-palette-color="primary" id="text-0"></path></svg></g></svg></g><g transform="matrix(1,0,0,1,0,69.80707846877613)"><svg viewBox="0 0 232.209792 22.484732753296427" height="22.484732753296427" width="232.209792"><g transform="matrix(1,0,0,1,0,0)"><svg width="232.209792" viewBox="4.85 -36.55 496.69 48.099999999999994" height="22.484732753296427" data-palette-color="#111111"><path d="M7.15 0L4.85 0 4.85-32.95 22.8-32.95 22.8-30.95 7.15-30.95 7.15-17.85 20.4-17.85 20.4-15.85 7.15-15.85 7.15 0ZM34.6 0.6L34.6 0.6Q30.85 0.6 29.1-1.65 27.35-3.9 27.35-8.6L27.35-8.6 27.35-24 29.55-24 29.55-8.9Q29.55-5.05 30.82-3.23 32.1-1.4 35-1.4L35-1.4Q37.15-1.4 38.9-2.58 40.65-3.75 42.75-6.3L42.75-6.3 42.75-24 44.95-24 44.95 0 43.1 0 42.85-4 42.75-4Q41-1.9 39.05-0.65 37.1 0.6 34.6 0.6ZM57.09 0.6L57.09 0.6Q54.15 0.6 54.15-3.2L54.15-3.2 54.15-35.95 56.34-35.95 56.34-2.9Q56.34-2.1 56.65-1.73 56.95-1.35 57.4-1.35L57.4-1.35Q57.55-1.35 57.72-1.35 57.9-1.35 58.3-1.45L58.3-1.45 58.7 0.35Q58.34 0.45 58 0.53 57.65 0.6 57.09 0.6ZM68.54 0L66.34 0 66.34-22.1 63.04-22.1 63.04-23.8 66.34-24 66.34-29.35Q66.34-32.95 67.89-34.75 69.44-36.55 72.29-36.55L72.29-36.55Q74.04-36.55 75.79-35.75L75.79-35.75 75.19-33.95Q74.44-34.35 73.72-34.5 72.99-34.65 72.29-34.65L72.29-34.65Q70.39-34.65 69.47-33.25 68.54-31.85 68.54-29.2L68.54-29.2 68.54-24 74.09-24 74.09-22.1 68.54-22.1 68.54 0ZM81.34 0L79.14 0 79.14-24 81.34-24 81.34 0ZM80.29-29.8L80.29-29.8Q79.44-29.8 78.87-30.35 78.29-30.9 78.29-31.75L78.29-31.75Q78.29-32.7 78.87-33.23 79.44-33.75 80.29-33.75L80.29-33.75Q81.14-33.75 81.72-33.23 82.29-32.7 82.29-31.75L82.29-31.75Q82.29-30.9 81.72-30.35 81.14-29.8 80.29-29.8ZM93.54 0.6L93.54 0.6Q90.59 0.6 90.59-3.2L90.59-3.2 90.59-35.95 92.79-35.95 92.79-2.9Q92.79-2.1 93.09-1.73 93.39-1.35 93.84-1.35L93.84-1.35Q93.99-1.35 94.16-1.35 94.34-1.35 94.74-1.45L94.74-1.45 95.14 0.35Q94.79 0.45 94.44 0.53 94.09 0.6 93.54 0.6ZM105.39 0.6L105.39 0.6Q102.44 0.6 102.44-3.2L102.44-3.2 102.44-35.95 104.64-35.95 104.64-2.9Q104.64-2.1 104.94-1.73 105.24-1.35 105.69-1.35L105.69-1.35Q105.84-1.35 106.01-1.35 106.19-1.35 106.59-1.45L106.59-1.45 106.99 0.35Q106.64 0.45 106.29 0.53 105.94 0.6 105.39 0.6ZM116.48 0L114.28 0 114.28-24 116.48-24 116.48 0ZM115.43-29.8L115.43-29.8Q114.58-29.8 114.01-30.35 113.43-30.9 113.43-31.75L113.43-31.75Q113.43-32.7 114.01-33.23 114.58-33.75 115.43-33.75L115.43-33.75Q116.28-33.75 116.86-33.23 117.43-32.7 117.43-31.75L117.43-31.75Q117.43-30.9 116.86-30.35 116.28-29.8 115.43-29.8ZM127.93 0L125.73 0 125.73-24 127.63-24 127.83-20.3 127.98-20.3Q129.83-22.15 131.78-23.38 133.73-24.6 136.23-24.6L136.23-24.6Q139.98-24.6 141.73-22.35 143.48-20.1 143.48-15.4L143.48-15.4 143.48 0 141.28 0 141.28-15.1Q141.28-18.95 140-20.78 138.73-22.6 135.78-22.6L135.78-22.6Q133.63-22.6 131.88-21.48 130.13-20.35 127.93-18.1L127.93-18.1 127.93 0ZM160.18 11.55L160.18 11.55Q155.63 11.55 152.98 9.75 150.33 7.95 150.33 4.9L150.33 4.9Q150.33 3.3 151.28 1.8 152.23 0.3 153.88-0.9L153.88-0.9 153.88-1.1Q152.98-1.65 152.38-2.6 151.78-3.55 151.78-4.95L151.78-4.95Q151.78-6.55 152.68-7.68 153.58-8.8 154.38-9.35L154.38-9.35 154.38-9.55Q153.23-10.55 152.3-12.25 151.38-13.95 151.38-16.15L151.38-16.15Q151.38-18 152.03-19.55 152.68-21.1 153.83-22.23 154.98-23.35 156.53-23.98 158.08-24.6 159.83-24.6L159.83-24.6Q160.83-24.6 161.63-24.43 162.43-24.25 162.98-24L162.98-24 171.13-24 171.13-22.15 165.53-22.15Q166.68-21.15 167.43-19.58 168.18-18 168.18-16.1L168.18-16.1Q168.18-14.25 167.53-12.7 166.88-11.15 165.75-10.03 164.63-8.9 163.1-8.28 161.58-7.65 159.83-7.65L159.83-7.65Q158.83-7.65 157.75-7.9 156.68-8.15 155.83-8.65L155.83-8.65Q155.03-8 154.45-7.2 153.88-6.4 153.88-5.2L153.88-5.2Q153.88-3.9 154.83-2.98 155.78-2.05 158.48-2.05L158.48-2.05 163.63-2.05Q167.68-2.05 169.6-0.73 171.53 0.6 171.53 3.45L171.53 3.45Q171.53 5 170.73 6.48 169.93 7.95 168.45 9.08 166.98 10.2 164.88 10.88 162.78 11.55 160.18 11.55ZM159.83-9.4L159.83-9.4Q161.08-9.4 162.2-9.88 163.33-10.35 164.18-11.25 165.03-12.15 165.53-13.4 166.03-14.65 166.03-16.15L166.03-16.15Q166.03-17.65 165.53-18.9 165.03-20.15 164.2-21 163.38-21.85 162.23-22.33 161.08-22.8 159.83-22.8L159.83-22.8Q158.53-22.8 157.4-22.33 156.28-21.85 155.43-21 154.58-20.15 154.08-18.93 153.58-17.7 153.58-16.15L153.58-16.15Q153.58-14.65 154.08-13.4 154.58-12.15 155.45-11.25 156.33-10.35 157.45-9.88 158.58-9.4 159.83-9.4ZM160.43 9.75L160.43 9.75Q162.43 9.75 164.08 9.22 165.73 8.7 166.88 7.85 168.03 7 168.65 5.93 169.28 4.85 169.28 3.7L169.28 3.7Q169.28 1.7 167.85 0.88 166.43 0.05 163.73 0.05L163.73 0.05 158.58 0.05Q158.18 0.05 157.35-0.03 156.53-0.1 155.58-0.35L155.58-0.35Q153.93 0.8 153.18 2.1 152.43 3.4 152.43 4.7L152.43 4.7Q152.43 6.95 154.5 8.35 156.58 9.75 160.43 9.75ZM185.72 10.95L185.72 10.95Q184.37 10.95 183.27 10.45L183.27 10.45 183.77 8.5Q184.17 8.65 184.67 8.78 185.17 8.9 185.72 8.9L185.72 8.9Q187.97 8.9 189.47 7.1 190.97 5.3 191.87 2.55L191.87 2.55 192.52 0.45 182.67-24 185.07-24 190.87-8.9Q191.42-7.4 192.1-5.6 192.77-3.8 193.47-2.2L193.47-2.2 193.67-2.2Q194.22-3.8 194.8-5.6 195.37-7.4 195.87-8.9L195.87-8.9 201.02-24 203.27-24 193.77 3Q193.27 4.5 192.55 5.95 191.82 7.4 190.85 8.5 189.87 9.6 188.6 10.28 187.32 10.95 185.72 10.95ZM217.22 0.6L217.22 0.6Q215.07 0.6 213.12-0.25 211.17-1.1 209.7-2.7 208.22-4.3 207.35-6.63 206.47-8.95 206.47-11.95L206.47-11.95Q206.47-14.95 207.35-17.32 208.22-19.7 209.7-21.3 211.17-22.9 213.12-23.75 215.07-24.6 217.22-24.6L217.22-24.6Q219.37-24.6 221.35-23.75 223.32-22.9 224.8-21.3 226.27-19.7 227.15-17.32 228.02-14.95 228.02-11.95L228.02-11.95Q228.02-8.95 227.15-6.63 226.27-4.3 224.8-2.7 223.32-1.1 221.35-0.25 219.37 0.6 217.22 0.6ZM217.22-1.35L217.22-1.35Q219.02-1.35 220.6-2.13 222.17-2.9 223.3-4.3 224.42-5.7 225.07-7.65 225.72-9.6 225.72-11.95L225.72-11.95Q225.72-14.35 225.07-16.3 224.42-18.25 223.3-19.68 222.17-21.1 220.6-21.88 219.02-22.65 217.22-22.65L217.22-22.65Q215.42-22.65 213.87-21.88 212.32-21.1 211.2-19.68 210.07-18.25 209.42-16.3 208.77-14.35 208.77-11.95L208.77-11.95Q208.77-9.6 209.42-7.65 210.07-5.7 211.2-4.3 212.32-2.9 213.87-2.13 215.42-1.35 217.22-1.35ZM242.12 0.6L242.12 0.6Q238.37 0.6 236.62-1.65 234.87-3.9 234.87-8.6L234.87-8.6 234.87-24 237.07-24 237.07-8.9Q237.07-5.05 238.34-3.23 239.62-1.4 242.52-1.4L242.52-1.4Q244.67-1.4 246.42-2.58 248.17-3.75 250.27-6.3L250.27-6.3 250.27-24 252.47-24 252.47 0 250.62 0 250.37-4 250.27-4Q248.52-1.9 246.57-0.65 244.62 0.6 242.12 0.6ZM263.87 0L261.67 0 261.67-24 263.57-24 263.77-19.55 263.92-19.55Q265.12-21.8 266.84-23.2 268.57-24.6 270.72-24.6L270.72-24.6Q271.42-24.6 271.97-24.5 272.52-24.4 273.12-24.1L273.12-24.1 272.62-22.1Q272.02-22.35 271.57-22.43 271.12-22.5 270.42-22.5L270.42-22.5Q268.82-22.5 267.04-21.13 265.27-19.75 263.87-16.35L263.87-16.35 263.87 0ZM294.06 0.6L294.06 0.6Q292.31 0.6 291.16 0.08 290.01-0.45 289.31-1.4 288.61-2.35 288.34-3.7 288.06-5.05 288.06-6.65L288.06-6.65 288.06-22.1 284.31-22.1 284.31-23.8 288.11-24 288.41-30.95 290.31-30.95 290.31-24 297.26-24 297.26-22.1 290.31-22.1 290.31-6.45Q290.31-5.3 290.49-4.38 290.66-3.45 291.11-2.78 291.56-2.1 292.34-1.73 293.11-1.35 294.36-1.35L294.36-1.35Q295.06-1.35 295.89-1.58 296.71-1.8 297.36-2.1L297.36-2.1 297.96-0.3Q296.91 0.1 295.86 0.35 294.81 0.6 294.06 0.6ZM311.66 0.6L311.66 0.6Q309.36 0.6 307.33-0.25 305.31-1.1 303.81-2.73 302.31-4.35 301.43-6.68 300.56-9 300.56-11.95L300.56-11.95Q300.56-14.9 301.43-17.25 302.31-19.6 303.78-21.23 305.26-22.85 307.13-23.73 309.01-24.6 311.01-24.6L311.01-24.6Q315.31-24.6 317.76-21.7 320.21-18.8 320.21-13.5L320.21-13.5Q320.21-13.05 320.21-12.6 320.21-12.15 320.11-11.7L320.11-11.7 302.81-11.7Q302.86-9.45 303.51-7.53 304.16-5.6 305.33-4.23 306.51-2.85 308.16-2.08 309.81-1.3 311.86-1.3L311.86-1.3Q313.81-1.3 315.38-1.88 316.96-2.45 318.31-3.45L318.31-3.45 319.21-1.75Q317.76-0.9 316.03-0.15 314.31 0.6 311.66 0.6ZM302.81-13.5L302.81-13.5 318.11-13.5Q318.11-18.15 316.21-20.43 314.31-22.7 311.06-22.7L311.06-22.7Q309.51-22.7 308.11-22.08 306.71-21.45 305.58-20.25 304.46-19.05 303.73-17.35 303.01-15.65 302.81-13.5ZM335.61 0.6L335.61 0.6Q333.26 0.6 331.28-0.25 329.31-1.1 327.83-2.7 326.36-4.3 325.53-6.63 324.71-8.95 324.71-11.95L324.71-11.95Q324.71-14.95 325.61-17.32 326.51-19.7 328.01-21.3 329.51-22.9 331.48-23.75 333.46-24.6 335.66-24.6L335.66-24.6Q338.16-24.6 339.81-23.7 341.46-22.8 342.71-21.65L342.71-21.65 341.41-20.1Q340.26-21.2 338.86-21.93 337.46-22.65 335.71-22.65L335.71-22.65Q333.86-22.65 332.28-21.88 330.71-21.1 329.53-19.68 328.36-18.25 327.68-16.3 327.01-14.35 327.01-11.95L327.01-11.95Q327.01-9.6 327.63-7.65 328.26-5.7 329.38-4.3 330.51-2.9 332.13-2.13 333.76-1.35 335.71-1.35L335.71-1.35Q337.61-1.35 339.23-2.15 340.86-2.95 342.11-4.1L342.11-4.1 343.26-2.55Q341.71-1.2 339.81-0.3 337.91 0.6 335.61 0.6ZM351.35 0L349.15 0 349.15-35.95 351.35-35.95 351.35-20.25Q353.25-22.15 355.2-23.38 357.15-24.6 359.65-24.6L359.65-24.6Q363.4-24.6 365.15-22.35 366.9-20.1 366.9-15.4L366.9-15.4 366.9 0 364.7 0 364.7-15.1Q364.7-18.95 363.43-20.78 362.15-22.6 359.2-22.6L359.2-22.6Q357.05-22.6 355.3-21.48 353.55-20.35 351.35-18.1L351.35-18.1 351.35 0ZM387.75 0L385.55 0 385.55-24 387.45-24 387.65-20.3 387.8-20.3Q389.65-22.15 391.6-23.38 393.55-24.6 396.05-24.6L396.05-24.6Q399.8-24.6 401.55-22.35 403.3-20.1 403.3-15.4L403.3-15.4 403.3 0 401.1 0 401.1-15.1Q401.1-18.95 399.82-20.78 398.55-22.6 395.6-22.6L395.6-22.6Q393.45-22.6 391.7-21.48 389.95-20.35 387.75-18.1L387.75-18.1 387.75 0ZM421.25 0.6L421.25 0.6Q418.95 0.6 416.92-0.25 414.9-1.1 413.4-2.73 411.9-4.35 411.02-6.68 410.15-9 410.15-11.95L410.15-11.95Q410.15-14.9 411.02-17.25 411.9-19.6 413.37-21.23 414.85-22.85 416.72-23.73 418.6-24.6 420.6-24.6L420.6-24.6Q424.9-24.6 427.35-21.7 429.8-18.8 429.8-13.5L429.8-13.5Q429.8-13.05 429.8-12.6 429.8-12.15 429.7-11.7L429.7-11.7 412.4-11.7Q412.45-9.45 413.1-7.53 413.75-5.6 414.92-4.23 416.1-2.85 417.75-2.08 419.4-1.3 421.45-1.3L421.45-1.3Q423.4-1.3 424.97-1.88 426.55-2.45 427.9-3.45L427.9-3.45 428.8-1.75Q427.35-0.9 425.62-0.15 423.9 0.6 421.25 0.6ZM412.4-13.5L412.4-13.5 427.7-13.5Q427.7-18.15 425.8-20.43 423.9-22.7 420.65-22.7L420.65-22.7Q419.1-22.7 417.7-22.08 416.3-21.45 415.17-20.25 414.05-19.05 413.32-17.35 412.6-15.65 412.4-13.5ZM445.39 0.6L445.39 0.6Q443.09 0.6 441.07-0.25 439.04-1.1 437.54-2.73 436.04-4.35 435.17-6.68 434.29-9 434.29-11.95L434.29-11.95Q434.29-14.9 435.17-17.25 436.04-19.6 437.52-21.23 438.99-22.85 440.87-23.73 442.74-24.6 444.74-24.6L444.74-24.6Q449.04-24.6 451.49-21.7 453.94-18.8 453.94-13.5L453.94-13.5Q453.94-13.05 453.94-12.6 453.94-12.15 453.84-11.7L453.84-11.7 436.54-11.7Q436.59-9.45 437.24-7.53 437.89-5.6 439.07-4.23 440.24-2.85 441.89-2.08 443.54-1.3 445.59-1.3L445.59-1.3Q447.54-1.3 449.12-1.88 450.69-2.45 452.04-3.45L452.04-3.45 452.94-1.75Q451.49-0.9 449.77-0.15 448.04 0.6 445.39 0.6ZM436.54-13.5L436.54-13.5 451.84-13.5Q451.84-18.15 449.94-20.43 448.04-22.7 444.79-22.7L444.79-22.7Q443.24-22.7 441.84-22.08 440.44-21.45 439.32-20.25 438.19-19.05 437.47-17.35 436.74-15.65 436.54-13.5ZM468.39 0.6L468.39 0.6Q463.84 0.6 461.14-2.63 458.44-5.85 458.44-11.95L458.44-11.95Q458.44-14.85 459.29-17.2 460.14-19.55 461.62-21.2 463.09-22.85 465.02-23.73 466.94-24.6 469.09-24.6L469.09-24.6Q471.29-24.6 472.92-23.83 474.54-23.05 476.34-21.65L476.34-21.65 476.24-26.05 476.24-35.95 478.44-35.95 478.44 0 476.54 0 476.34-3.1 476.19-3.1Q474.74-1.65 472.77-0.53 470.79 0.6 468.39 0.6ZM468.69-1.35L468.69-1.35Q470.69-1.35 472.52-2.38 474.34-3.4 476.24-5.3L476.24-5.3 476.24-19.55Q474.34-21.25 472.67-21.95 470.99-22.65 469.24-22.65L469.24-22.65Q467.44-22.65 465.89-21.83 464.34-21 463.22-19.58 462.09-18.15 461.44-16.18 460.79-14.2 460.79-11.95L460.79-11.95Q460.79-9.55 461.32-7.6 461.84-5.65 462.84-4.28 463.84-2.9 465.32-2.13 466.79-1.35 468.69-1.35ZM493.44 0.6L493.44 0.6Q490.74 0.6 488.49-0.38 486.24-1.35 484.64-2.7L484.64-2.7 485.94-4.35Q487.49-3.05 489.24-2.18 490.99-1.3 493.59-1.3L493.59-1.3Q496.44-1.3 497.86-2.73 499.29-4.15 499.29-6.05L499.29-6.05Q499.29-7.15 498.76-8 498.24-8.85 497.39-9.45 496.54-10.05 495.51-10.5 494.49-10.95 493.44-11.35L493.44-11.35Q492.09-11.85 490.71-12.4 489.34-12.95 488.24-13.73 487.14-14.5 486.46-15.58 485.79-16.65 485.79-18.2L485.79-18.2Q485.79-19.5 486.29-20.68 486.79-21.85 487.79-22.73 488.79-23.6 490.21-24.1 491.64-24.6 493.54-24.6L493.54-24.6Q495.44-24.6 497.26-23.9 499.09-23.2 500.39-22.1L500.39-22.1 499.19-20.55Q497.99-21.45 496.64-22.08 495.29-22.7 493.44-22.7L493.44-22.7Q492.04-22.7 491.04-22.33 490.04-21.95 489.36-21.35 488.69-20.75 488.36-19.95 488.04-19.15 488.04-18.35L488.04-18.35Q488.04-17.3 488.51-16.57 488.99-15.85 489.79-15.3 490.59-14.75 491.61-14.33 492.64-13.9 493.69-13.5L493.69-13.5Q495.09-12.95 496.49-12.4 497.89-11.85 499.01-11.05 500.14-10.25 500.84-9.08 501.54-7.9 501.54-6.15L501.54-6.15Q501.54-4.8 501.01-3.58 500.49-2.35 499.44-1.43 498.39-0.5 496.89 0.05 495.39 0.6 493.44 0.6Z" opacity="1" transform="matrix(1,0,0,1,0,0)" fill="#111111" class="slogan-text-1" data-fill-palette-color="secondary" id="text-1"></path></svg></g></svg></g></svg></g></svg></g><g transform="matrix(1,0,0,1,0,0.23072952805517843)"><svg viewBox="0 0 88.11191509182488 92.29181122207254" height="92.29181122207254" width="88.11191509182488"><g><svg xmlns="http://www.w3.org/2000/svg" xml:space="preserve" version="1.0" viewBox="0 0 95.471 100" id="icon-0" width="88.11191509182488" height="92.29181122207254" x="0" y="0" class="icon-icon-0" data-fill-palette-color="accent"><path d="M47.735 0c-0.083 2.825-1.738 13.412-19.799 30.934C10.554 47.797 2.439 49.824 0 50c2.439 0.178 10.554 2.204 27.936 19.066C45.997 86.589 47.652 97.177 47.735 100c0.083-2.823 1.739-13.411 19.798-30.934C84.917 52.204 93.031 50.178 95.471 50c-2.439-0.176-10.554-2.203-27.938-19.066C49.475 13.412 47.819 2.825 47.735 0" fill="#0074d9" data-fill-palette-color="accent"></path></svg></g></svg></g></svg></g><defs></defs></svg><rect width="395.52" height="71.18067267002459" fill="none" stroke="none" visibility="hidden"></rect></g></svg></g></svg>